<?xml version="1.0" encoding="UTF-8"?>
<svg version="1.1" xmlns="http://www.w3.org/2000/svg" width="1080" height="1080">
<path d="M0 0 C356.4 0 712.8 0 1080 0 C1080 356.4 1080 712.8 1080 1080 C723.6 1080 367.2 1080 0 1080 C0 723.6 0 367.2 0 0 Z " fill="#674AEB" transform="translate(0,0)"/>
<path d="M0 0 C356.4 0 712.8 0 1080 0 C1080 356.4 1080 712.8 1080 1080 C723.6 1080 367.2 1080 0 1080 C0 723.6 0 367.2 0 0 Z M353 126 C352.01692871 126.46132324 351.03385742 126.92264648 350.02099609 127.39794922 C320.53286325 141.3819634 293.71027349 159.21965101 269.78515625 181.43359375 C267.47352984 183.56366185 265.1338702 185.63951758 262.75 187.6875 C256.73209428 192.92046149 251.20672421 198.59085459 246.01953125 204.64453125 C244.49146494 206.42678267 242.94365844 208.19213435 241.38671875 209.94921875 C223.69455467 230.0306783 209.32842118 252.28392379 196.33105469 275.61230469 C195.18030557 277.67656117 194.01724171 279.73322825 192.8515625 281.7890625 C174.15620353 315.59332382 161.77674847 353.24720105 153.67480469 390.88867188 C153.03640363 393.83215344 152.36950834 396.7676702 151.6953125 399.703125 C145.02204208 429.36952222 142.03782138 459.7069281 140 490 C139.92797363 491.03785645 139.85594727 492.07571289 139.78173828 493.14501953 C138.80713311 507.95022853 138.90208603 522.79445655 138.875 537.625 C138.87223053 538.61593658 138.86946106 539.60687317 138.86660767 540.62783813 C138.82597345 560.55036252 139.5965983 580.39565024 141.25 600.25 C141.31213684 601.00192627 141.37427368 601.75385254 141.43829346 602.52856445 C142.86412944 619.47246231 145.24255118 636.22695018 148 653 C148.20383301 654.25312988 148.40766602 655.50625977 148.61767578 656.79736328 C152.28098282 679.05217531 156.91252765 701.04734842 164.13867188 722.43847656 C165.08493473 725.25258934 166.00235098 728.07548061 166.921875 730.8984375 C180.08582974 770.7103979 198.90645448 808.3324886 224 842 C224.39896484 842.53786133 224.79792969 843.07572266 225.20898438 843.62988281 C243.02780293 867.54612317 263.54734835 889.69665834 287.34863281 907.73388672 C288.91534886 908.93509746 290.45470901 910.17174342 291.9921875 911.41015625 C310.08621297 925.86187789 330.31936413 936.74485194 351 947 C351.75361816 947.37737305 352.50723633 947.75474609 353.28369141 948.14355469 C380.05893609 961.48101107 408.94983329 970.24598078 438 977 C438.76812012 977.1851416 439.53624023 977.3702832 440.32763672 977.56103516 C481.5546674 987.46629112 523.82096687 988.60706156 566 988 C567.64718018 987.97897217 567.64718018 987.97897217 569.32763672 987.95751953 C575.57261795 987.85163539 581.77483088 987.5022916 588 987 C588.64636414 986.94863892 589.29272827 986.89727783 589.9586792 986.84436035 C614.97642769 984.83424188 639.4662842 981.29502364 664 976 C664.96164062 975.79294434 665.92328125 975.58588867 666.9140625 975.37255859 C672.35833996 974.15947852 677.67798914 972.66593763 683 971 C684.17385254 970.63422852 685.34770508 970.26845703 686.55712891 969.89160156 C735.13055102 954.63864052 781.67451929 933.09748063 820 899 C820.72888428 898.35724121 821.45776855 897.71448242 822.20874023 897.05224609 C828.70134408 891.27890772 834.91765197 885.26556591 841.0625 879.125 C841.99126953 878.20847656 842.92003906 877.29195312 843.87695312 876.34765625 C850.0261941 870.21136104 855.61652582 863.81361056 861 857 C862.16145066 855.56379588 863.32290844 854.12759751 864.484375 852.69140625 C877.63198155 836.16744848 888.78456264 818.46193735 899 800 C899.47791992 799.14132324 899.95583984 798.28264648 900.44824219 797.39794922 C934.49308487 735.73795892 950.04722037 664.79695064 955 595 C955.0483902 594.34788544 955.0967804 593.69577087 955.14663696 593.02389526 C956.38554259 575.68415035 956.18735411 558.27795668 956.18530273 540.90454102 C956.18522176 537.3592414 956.19213109 533.81407181 956.20581055 530.26879883 C956.3128303 502.03909859 955.44129953 474.20372307 951.625 446.1875 C951.3992371 444.49886258 951.17348869 442.81022321 950.94775391 441.12158203 C950.40600893 437.09934693 949.84900798 433.07941109 949.28588867 429.06011963 C949.03575868 427.25767781 948.79538406 425.45388768 948.55664062 423.64990234 C938.66562414 349.40451844 908.656188 275.79793617 861.34472656 217.65332031 C860.06169494 216.07585296 858.79220573 214.48739961 857.5234375 212.8984375 C850.67587098 204.50864956 843.0680925 196.85660255 835.4375 189.1875 C834.90678894 188.65152191 834.37607788 188.11554382 833.82928467 187.56332397 C826.89210153 180.5730044 819.77116088 174.07366599 812 168 C811.20940186 167.37569092 810.41880371 166.75138184 809.60424805 166.1081543 C747.80528976 117.75990253 669.87043686 93.16350799 592.20751953 87.64550781 C591.20962402 87.57428711 590.21172852 87.50306641 589.18359375 87.4296875 C587.86186157 87.34050049 587.86186157 87.34050049 586.51342773 87.24951172 C584 87 584 87 581.77612305 86.48144531 C577.65359064 85.76650081 573.57470925 85.85799731 569.3984375 85.8671875 C567.98696693 85.86500465 567.98696693 85.86500465 566.54698181 85.86277771 C563.48961379 85.86053268 560.43235692 85.86680701 557.375 85.875 C555.81185562 85.87782486 555.81185562 85.87782486 554.21713257 85.88070679 C484.77279573 86.02847634 416.3812266 96.22556332 353 126 Z " fill="#FEFEFE" transform="translate(0,0)"/>
<path d="M0 0 C0.54575684 0.43892578 1.09151367 0.87785156 1.65380859 1.33007812 C31.09758535 25.19040553 50.8604974 57.18435615 63.75 92.5625 C64.10280029 93.53018311 64.45560059 94.49786621 64.8190918 95.49487305 C70.17116634 110.65426934 73.92908506 126.18775815 77.0625 141.9375 C77.23331085 142.78852295 77.4041217 143.6395459 77.58010864 144.51635742 C80.05691888 156.95655869 82.03944781 169.39284138 83.4375 182 C83.51517609 182.69954803 83.59285217 183.39909607 83.67288208 184.11984253 C85.47312997 200.68384114 86.15446264 217.12754173 86.1328125 233.77734375 C86.1334887 235.64189161 86.13446134 237.50643938 86.13571167 239.37098694 C86.13717415 243.25278575 86.13508148 247.13456134 86.13037109 251.01635742 C86.12467875 255.94216993 86.12795904 260.86792786 86.13394356 265.79373837 C86.13759207 269.63664649 86.13639102 273.4795421 86.13381577 277.32245064 C86.13315809 279.13656178 86.13393332 280.95067413 86.13629532 282.76478386 C86.15318889 299.37990311 85.36865236 315.75649516 83.25 332.25 C83.16352203 332.92776489 83.07704407 333.60552979 82.98794556 334.30383301 C74.82625945 397.9031607 57.0519418 469.30195293 3.796875 510.859375 C2.41242188 511.91898438 2.41242188 511.91898438 1 513 C-0.00546875 513.80953125 -1.0109375 514.6190625 -2.046875 515.453125 C-31.59737376 539.11629019 -67.83167761 551.18146056 -105 556 C-105.77649902 556.10441406 -106.55299805 556.20882812 -107.35302734 556.31640625 C-168.95308025 564.31214119 -235.20853591 553.03888017 -285.09375 514.6171875 C-287.77292608 512.45728993 -290.3977466 510.25179512 -293 508 C-293.87398438 507.24847656 -294.74796875 506.49695313 -295.6484375 505.72265625 C-300.880873 501.12659804 -305.54857899 496.34550985 -310 491 C-310.74765625 490.15179687 -311.4953125 489.30359375 -312.265625 488.4296875 C-343.89367945 451.92812781 -358.08875884 403.72671681 -366 357 C-366.19577637 355.86046875 -366.39155273 354.7209375 -366.59326172 353.546875 C-378.14347927 284.79029608 -378.97464992 206.56780383 -362.57714844 138.42773438 C-361.92184839 135.67126073 -361.30890168 132.90667435 -360.6953125 130.140625 C-351.61908367 89.92662531 -335.65829642 50.33422019 -307 20 C-305.87037767 18.67058052 -304.74520688 17.33736282 -303.625 16 C-291.23084092 1.87971374 -275.33307507 -8.93543846 -259 -18 C-258.38608398 -18.3412793 -257.77216797 -18.68255859 -257.13964844 -19.03417969 C-181.74111396 -60.26467081 -67.46633891 -54.55109599 0 0 Z " fill="#FEFEFE" transform="translate(691,280)"/>
</svg>
